<?xml version="1.0" encoding="utf-8"?>
<!-- Generator: Adobe Illustrator 23.0.2, SVG Export Plug-In . SVG Version: 6.00 Build 0)  -->
<svg version="1.1" id="Layer_1" xmlns="http://www.w3.org/2000/svg" xmlns:xlink="http://www.w3.org/1999/xlink" x="0px" y="0px"
	 width="841.9px"  fill="#9cbbe2" height="595.3px" viewBox="0 0 841.9 595.3" style="enable-background:new 0 0 841.9 595.3;" xml:space="preserve"
	>
<path d="M754.5,379.5v-13.1h-17.2l4.8-14.6h-37.5c-24,0-35,28.1-35.2,28.1H177.8l-3.8,11.7l505.7-0.2l3.3-9.7
	c2.6-7.5,10.4-19.3,23.6-19.3H727l-20.7,64.1h-23.4c-14.3,0-11.4-8.9-9.9-13.8l3.3-11.7l-505,0.4l-3.5,11.7h494.5
	c0.2,0-9.2,23.9,13.4,23.9h39l5.1-15.5h34.6v-13.1l-30.4-0.2l9.2-28.6H754.5z"/>
<path d="M120.5,367c-2.2,7.1-15,7.1-12.6-0.9l24-83.8c1.5-4.7,14.1-4.7,11.9,2.2l-8.4,29.3l35.3-0.2l8.4-27.3
	c2.2-7.5-4.6-17.5-12.1-17.5h-54.2c-9.3,0-18.5,7.1-22.5,18.6l-22.2,78.7c-4.2,12-1.6,25.1,14.1,25.1l47.1-0.2
	c9.5,0,22-7.5,24.2-15.8l8.1-29h-34.8L120.5,367z"/>
<path d="M471.4,203.3l-16.5,59.9h45l3.3-10.6c-0.2,0.2-6.2,0-4.2-6.2l12.6-46.1c1.6-5.8,16.5-5.6,13.4,5.1l-16.1,57.9h41.6l2.6-9.5
	c0.2-0.2-7-0.2-4.9-7.3l13-46.6c2.6-10.7-6.6-16.2-15.2-16.2h-77.6l-2.7,9.8C465.3,194.4,474,194.8,471.4,203.3z"/>
<path d="M367,298.4c2.6-10.7-4.9-16.2-13.9-16.2h-77.4l-2.7,10c0,0,8.2-0.2,5.9,8.4l-17.2,60.5l45,0.2l3.8-11.1
	c-0.2,0.2-6.8,0.4-4.8-5.8l13.2-45.5c1.6-5.8,15.4-5.8,13,4l-16.3,58.5h41.6l3.1-9.7c0,0-7.5,0-5.5-7.1L367,298.4z"/>
<path d="M472.3,320.2c4.4-14.4,15.7-16.8,31.7-16.4l6-21.9c-7-1.1-20.7,0.7-27.5,6.6l-0.2-6.6h-44.5l-3.1,9.7c5.7,0,4.2,4.9,2.9,9.8
	l-16.8,59.9H467l2.7-10.7c-0.2,0.5-5.9-1.1-4.2-6.6L472.3,320.2z"/>
<path d="M313.6,203.5L297,263.1h46.1l3.1-10.2c-0.7,1.8-4.2-3.1-2.6-8.6l5.9-21.1c4.4-14.2,14.5-17.7,30.4-17.3l6.2-21.7
	c-7-1.1-20.7,0.2-27.5,6l-0.2-6.6H314l-2.4,8.2C317.7,192.2,314.9,198.8,313.6,203.5z"/>
<path d="M640.4,267h-45.8l-3.1,9.3c0.2-0.7,8.4-0.4,5.3,12L576.7,361h45.2l3.1-11.7c-0.2,0.7-7.7,0.7-5.9-6.7L640.4,267z"/>
<path d="M370.5,343.4c-1.5,5.5,2.9,17.9,11.5,17.9H416l5.5-19.3l-6-0.2c-4,0-7.5-4.2-4.6-11.8l10.4-37.7l6.4,0.2l2.7-10.4h-6
	l3.8-14.4H412c-7.9,13.8-22.9,15.3-33.9,14.9l-2.6,9.8c0,0.4,8.8-0.7,7,6.4L370.5,343.4z"/>
<path d="M305,156.2h-89.2l-3.8,10.2c0-0.2,10.8,0.5,8.8,7.3l-22,72.5c-2,7.3-11.2,5.1-11.4,5.8l-4,10.9h84.2c6.4,0,15.4-2.5,17-8.6
	l10.4-37.5c2.2-7.8-2.2-10-3.3-10.7c0,0,8.4-3.6,9.9-9.3l8.8-30.1C312.3,160.6,309.2,156.2,305,156.2z M256.5,216.1l-8.2,31.5
	c-1.3,4.4-10.3,3.3-9.5,0.4l8.6-32.8C248.3,211.6,257.4,212.7,256.5,216.1z M269.9,168.9l-8.6,32.1c-1.1,4-10.3,3.1-9.3,0l8.8-32.8
	C261.6,164,270.8,165.8,269.9,168.9z"/>
<path d="M644.8,183.7h-74.2l-2.6,10.6c0-0.4,7.5,1.3,6,5.8l-17.6,63.2h68.8c9.3,0,18.3-4.2,21.1-14.4l11.7-41.4
	C662,193.1,652.1,183.7,644.8,183.7z M622.8,206.8l-11.5,39.9c-1.5,5.6-15.4,6.4-14.3,2.2l12.6-44.6
	C610.9,198.7,624.9,199.3,622.8,206.8z"/>
<path d="M580.4,301.3c1.8-6.4-2.9-19.1-15.4-19.1h-50l-6.2,21.7l25.8,0.2c7.9,0,5.3,8.6,1.3,8.6h-31.5c-3.3,0-6.6,0.7-9.2,2.2
	c-9.9,6-17.6,20.6-16.8,30.6c0.9,10,6.2,16,12.3,16H569l2.6-10.2c0,0-4.9-0.5-2.4-9.5L580.4,301.3z M531.9,329.6l-4.2,16
	c-0.5,1.8-9.5,1.8-8.6-2.6l3.3-12.4C523.5,326.5,532.4,327,531.9,329.6z"/>
<path d="M459.6,203.9c1.5-5.5-1.8-20-14.8-20h-50l-6.2,22.2l25.6,0.2c7.9,0,5.3,8.6,1.3,8.6H384c-3.3,0-6.6,0.7-9.2,2.2
	c-9.9,6-17.6,20.6-16.8,30.6c0.9,10,6.2,16,12.3,16h78.4l3.1-10.6c-0.2,0.4-6.2,0.4-3.7-8.6L459.6,203.9z M412.2,231.4l-4.2,16
	c-0.5,1.8-9.5,1.8-8.4-2.6l3.1-12.6C403.6,227.9,412.9,228.9,412.2,231.4z"/>
<path d="M254.5,282.2h-49.4c-9.3,0-18.1,5.6-23.1,14.6l-13.9,49.4c-2.2,7.7,2.4,14.9,13.9,14.9l68.8,0.2l6.6-21.5l-44.3,0.2
	c-4.2,0-4.8-2.4-3.5-6.9l2-6.7h48.9l7.5-27.9C269,290,262.8,282.2,254.5,282.2z M231.7,298.4l-4.2,14.4h-11.2l4-13.8
	C222.5,290.9,233.9,290.9,231.7,298.4z"/>
</svg>
