<svg xmlns="http://www.w3.org/2000/svg" viewBox="0 0 599.9 146.21"  fill="#d9d9d9"><title>Asset 1</title><g id="Layer_2" data-name="Layer 2"><g id="layer"><path d="M224.4,130c-2.5.1-5.9-2.7-5.8-6.1.5-11.2,13.2-10.1,22.2-19-1.1,12.2-7.7,24.6-16.4,25.1m-72.2-24.1c-2.9,12.2-10.2,22.1-16,22.1h0c-5.7-.1-7.9-9.9-5.1-22.1,3-12.1,10.1-22,15.9-22.1,5.8.1,8.2,10,5.2,22.1m292.6-27.7c5.3.2,5.7,4.1,4.4,10.1l-1.3,5.8h-15l1.8-7.4c1.1-4.9,4.6-8.6,10.1-8.5m151.3,13.1a2.46,2.46,0,0,0-2.4,1.8c-5.2,20.8-16.3,30.2-29.6,30.9H541l58.9-58.8-85.7.1c-8.8,0-17.4,8.5-20.4,18.8l-4.5,16.6c-.2,1.7-.3,4.7,1.6,4.7,1.3,0,1.9-1.5,2.4-2.6,6.3-13.5,15.4-16.3,25.6-16l13.5-.1-24.7,24.8-46.5-.1c-16,0-17.3,18.9-28.4,19-7.3.1-7.8-3.6-6.7-7.6l4.2-17.4H480c2.1-7.1,5.4-14.1,5.3-23.2-.4-17.5-22.4-19.9-39.2-20-17.6-.2-40.2,5-47,24.1,0-.1-8.7,33.3-8.7,34.1.1,4.8,2.9,9.6,6.1,11.6H384.8c-5-.7-7.9-3.7-7.7-8.6.2-7.3,9-37.5,9-37.6a17,17,0,0,0,.5-5c-.6-11.7-10.1-16.9-19.9-17-15.2-.2-23.8,6.1-32.3,14.8v-3c.2-3.9-5.9-9.8-13.7-9.8H284.3a1.71,1.71,0,0,0-1.9,1.5c0,.9.6,1.4,1.9,1.9,3.8.8,14.8,5.5,13.1,12.2l-11.1,44c-1.1,3.7-1.6,6.4-7.6,6.4-6.3.1-7.4-4.1-6.3-8.3,3.7-14.9,5.2-21.7,9.5-38.3,4.2-16.3-16.3-22.1-39.3-22.1-12.1-.1-28.4,2-37.8,15.1-4.1,5.7-7.4,9-13.2,8.9C192.2,74,179.9,64,167,64c-9.5,0-15.8,3.7-23.2,9.5l9-37.3c2.1-9.4-6.8-16.3-14.1-16.3H114c-1.8,0-7.4-.2-7.4,1.5s12.1,3.5,10.8,15.4l-22.3,86.1c-2.1,6.3-5.3,9.4-11.6,9.5-7.4-.1-8.9-3.2-6.3-11.6l25.7-97.2c3.7-11.5,16.3-16.6,23.7-17.9,3.1-.5,5.7-.5,5.8-3.2-.1-1.2-.6-2.6-2.1-2.5H41.4a4.36,4.36,0,0,0-4.2,4.2c-.1,2.1,2.4,2.6,4.2,2.6,9.4,0,18.9,8.4,16.8,17.3L34.1,116c-4.3,14.8-16.4,20.5-31.5,22.1-1.1.1-2.7,2.4-2.6,4.3,0,1.5,2.8,1.5,4.7,1.5H105.6c9.1,0,14.7-4.2,20.6-11.5,5.7,8.9,14.3,13.6,25.2,13.6,24.6-.8,37.5-25.9,39.6-50.1l23.2.1c13.6,0,20.3-15.3,27.7-15.3a4.62,4.62,0,0,1,4.9,5.2c-1.2,9.7-14.2,13.6-24.7,15.4-16,2.6-32.3,9.4-33,25.7-.5,10.9,9.4,19,20.4,19.2s19.1-5.6,25.9-12.7c0,5.2,5.7,10.2,11.6,10.2h46.7c11.8-.2,24.4-.9,28.2-16.1l8.6-33.3c1.1-4.8,5.2-8.5,10.2-8.3,5.3.1,8.3,3.8,6.9,9.8l-8.5,34.8c-1.7,7.8,5.7,13.1,13.4,13.1h96.3c22.9-.3,23.4-22.6,35.1-22.4h13.6l-22.7,22.3h92.8c10.4-.2,21.5-5.6,23.6-17.7L597.4,94c.1-.8,0-2.5-1.3-2.7"/></g></g></svg>