<svg xmlns="http://www.w3.org/2000/svg" viewBox="0 0 360 74.76"  fill="#d9d9d9"><title>Asset 1</title><g id="Layer_2" data-name="Layer 2"><g id="Layer_1-2" data-name="Layer 1"><path d="M28.19,0,5.62.27,0,22.16l5.47-.28V74.41H28V46.51l14.8,27.9H89.35V49.79s-.18-9.85,10.77-8.75l6.3-22.44s-11-.82-17.5,7.66V19.7H69.48l-6,20.24h5.76V72L48.13,35.84,67.21,0H41.47L28.19,26.7V0"/><path d="M140.87,60.2l-5.29,14.21c-17.1,1.37-22-4.93-22-4.93-15.33-14.36-12.31-34.33.69-44.86s26.64-2,26.64-2V19.7h19.44V55h5.61L161,74.27H141l-.14-14.07m0-5.21-.11-9.44a8.67,8.67,0,0,0-8-6.84c-6.84-.55-11.34,6.84-7.38,12A14.07,14.07,0,0,0,130.93,55Z"/><path d="M189.33,32.3l4.39-12.6,13.35-.14C220.36,21.2,220.64,33,220.64,33l4.94-13.28H239.4c13.68,2.59,12.67,14.22,12.67,14.22V53.75h4.39c-3.56-20.1,7.24-28,7.24-28,15.05-13.41,32.83-5.34,32.83-5.34,17.79,8.89,15.34,30.37,15.34,30.37H277.53c2.59,2.32,2.73,5.33,14.65,6.28,6.66.54,17.78-2.59,17.78-2.59l-6.84,18.74c-8.1,2.73-22.32,1.09-22.32,1.09-19.15-3.14-23.65-18.19-23.65-18.19l-5.33,18.33h-19V46.51c-1-5.06-3-6.16-3-6.16-4.11-2.6-9.15-.55-9.15-.55V74.41H201.06V46.52a7.56,7.56,0,0,0-3.13-5.9c-3-2.73-8.6-.82-8.6-.82V74.41h-20V39.67h-5.76l5.76-20h20V32.3m86.29,7.5h16s.25-7.65-8.1-7.65C283.54,32.15,276.19,31.74,275.62,39.8Z"/><path d="M317.48,74.41h19.44V47.07s.54-7.81,10.66-7.27l6.7-20.92s-8.86-1.34-17.36,6.58V19.7H317.48l-5.72,20.1h5.72V74.41"/><path d="M355.54,72l2.26-6H360v8.11h-1.44V67.54h0L356,74.13h-1l-2.52-6.59h0v6.59H351V66h2.2l2.34,6M349.6,67.2h-2.52v6.93h-1.44V67.2h-2.49V66h6.45Z"/></g></g></svg>