<?xml version="1.0" encoding="utf-8"?>
<!-- Generator: Adobe Illustrator 23.0.2, SVG Export Plug-In . SVG Version: 6.00 Build 0)  -->
<svg version="1.1" id="Layer_1" xmlns="http://www.w3.org/2000/svg" xmlns:xlink="http://www.w3.org/1999/xlink" x="0px" y="0px"
	 width="100px" height="100px" fill="#9cbbe2"  viewBox="0 0 100 100" style="enable-background:new 0 0 100 100;" xml:space="preserve">
<g>
	<path d="M90.6,20.5c0,1.2-0.7,2.8-1.5,3.6l-7.4,7.4c-0.5,0.5-1.5,1.1-2.2,1.4l-5.8,1.9L61.7,46.9c1.4,1.9,2.5,4.1,3,6.4
		c1.2,5.3,0.1,10.6-3.5,14.3c-1.3,1.2-3.6,2.7-5.3,3.2c-2.9,1-5.2,3.7-5.5,6.7c-0.4,3.8-1.8,7.3-4.5,10c-7.2,7.2-20.2,5.9-29.1-2.9
		S6.8,62.7,14,55.4c2.7-2.7,6.2-4.2,9.9-4.5c3-0.3,5.7-2.5,6.7-5.5c0.5-1.7,2-4.1,3.2-5.3c3.6-3.6,9-4.7,14.3-3.5
		c2.3,0.5,4.4,1.6,6.4,3l12.1-12.1l1.9-5.8c0.2-0.7,0.8-1.7,1.4-2.2l7.3-7.4c0.8-0.8,2.4-1.5,3.6-1.5s2.8,0.7,3.6,1.5l4.7,4.7
		C90,17.8,90.6,19.4,90.6,20.5z M50,59c0-4.2-3.4-7.6-7.6-7.6c-4.2,0-7.6,3.4-7.6,7.6c0,4.2,3.4,7.6,7.6,7.6
		C46.6,66.6,50,63.2,50,59z"/>
</g>
<g>
</g>
<g>
</g>
<g>
</g>
<g>
</g>
<g>
</g>
<g>
</g>
</svg>
