<?xml version="1.0" encoding="utf-8"?>
<!-- Generator: Adobe Illustrator 23.0.2, SVG Export Plug-In . SVG Version: 6.00 Build 0)  -->
<svg version="1.1" id="Layer_1" xmlns="http://www.w3.org/2000/svg" xmlns:xlink="http://www.w3.org/1999/xlink" x="0px" y="0px"
	 width="100px" height="100px" fill="#9cbbe2" viewBox="0 0 100 100" style="enable-background:new 0 0 100 100;" xml:space="preserve">
<g>
	<path d="M92.6,89.3l-4.8,4.8c-1.6,1.6-4.2,1.6-5.8,0L64.9,77c-0.8-0.8-1.2-1.8-1.2-2.9v-2.8c-6,4.7-13.6,7.5-21.9,7.5
		c-19.7,0-35.6-15.9-35.6-35.6S22.1,7.7,41.8,7.7c19.7,0,35.6,15.9,35.6,35.6c0,8.3-2.8,15.9-7.5,21.9h2.8c1.1,0,2.1,0.4,2.9,1.2
		l17.1,17.1C94.2,85,94.2,87.6,92.6,89.3z M66.4,43.3c0-13.6-11-24.6-24.6-24.6c-13.6,0-24.6,11-24.6,24.6c0,13.6,11,24.6,24.6,24.6
		C55.4,67.9,66.4,56.9,66.4,43.3z M51.8,49.2c0,4.2-3.3,7.6-7.3,7.7v2.8c0,0.8-0.6,1.4-1.4,1.4h-2.7c-0.8,0-1.4-0.6-1.4-1.4v-2.8
		c-1.9-0.1-3.8-0.8-5.4-1.9c-0.7-0.5-0.7-1.5-0.1-2.1l2-1.9c0.5-0.5,1.2-0.5,1.7-0.1c0.7,0.4,1.4,0.6,2.2,0.6h4.8c1.1,0,2-1,2-2.3
		c0-1-0.6-1.9-1.5-2.2l-7.7-2.3c-3.2-1-5.4-4-5.4-7.4c0-4.2,3.3-7.6,7.3-7.7v-2.8c0-0.8,0.6-1.4,1.4-1.4h2.7c0.8,0,1.4,0.6,1.4,1.4
		v2.8c1.9,0.1,3.8,0.8,5.4,1.9c0.7,0.5,0.7,1.5,0.1,2.1l-2,1.9c-0.5,0.5-1.2,0.5-1.7,0.1c-0.7-0.4-1.4-0.6-2.2-0.6h-4.8
		c-1.1,0-2,1-2,2.3c0,1,0.6,1.9,1.5,2.2l7.7,2.3C49.6,42.8,51.8,45.8,51.8,49.2z"/>
</g>
<g>
</g>
<g>
</g>
<g>
</g>
<g>
</g>
<g>
</g>
<g>
</g>
</svg>
