<?xml version="1.0" encoding="utf-8"?>
<!-- Generator: Adobe Illustrator 23.0.2, SVG Export Plug-In . SVG Version: 6.00 Build 0)  -->
<svg version="1.1" id="Layer_1" xmlns="http://www.w3.org/2000/svg" xmlns:xlink="http://www.w3.org/1999/xlink" x="0px" y="0px"
	 width="100px" height="100px" fill="#9cbbe2" viewBox="0 0 100 100" style="enable-background:new 0 0 100 100;" xml:space="preserve">
<g>
	<path d="M94.9,66.9v4.5c0,1.2-1,2.2-2.2,2.2h-6.7c0,7.4-6,13.5-13.5,13.5c-7.4,0-13.5-6-13.5-13.5H41c0,7.4-6,13.5-13.5,13.5
		s-13.5-6-13.5-13.5v-18h21.3c0.6,0,1.1-0.5,1.1-1.1v-2.2c0-0.6-0.5-1.1-1.1-1.1H6.2c-0.6,0-1.1-0.5-1.1-1.1v-2.2
		c0-0.6,0.5-1.1,1.1-1.1h33.7c0.6,0,1.1-0.5,1.1-1.1v-2.2c0-0.6-0.5-1.1-1.1-1.1H10.7c-0.6,0-1.1-0.5-1.1-1.1v-2.2
		c0-0.6,0.5-1.1,1.1-1.1h33.7c0.6,0,1.1-0.5,1.1-1.1v-2.2c0-0.6-0.5-1.1-1.1-1.1H6.2c-0.6,0-1.1-0.5-1.1-1.1v-2.2
		c0-0.6,0.5-1.1,1.1-1.1h7.9V22c0-3.7,3-6.7,6.7-6.7h35.9c3.7,0,6.7,3,6.7,6.7v6.7h6.2c1.8,0,3.5,0.7,4.8,2l14,14c1.3,1.3,2,3,2,4.8
		v15.2h2.2C93.9,64.7,94.9,65.7,94.9,66.9z M34.3,73.7c0-3.7-3-6.7-6.7-6.7s-6.7,3-6.7,6.7c0,3.7,3,6.7,6.7,6.7S34.3,77.4,34.3,73.7
		z M83.7,49.5l-14-14h-6.2v15.7h20.2V49.5z M79.2,73.7c0-3.7-3-6.7-6.7-6.7c-3.7,0-6.7,3-6.7,6.7c0,3.7,3,6.7,6.7,6.7
		C76.2,80.4,79.2,77.4,79.2,73.7z"/>
</g>
<g>
</g>
<g>
</g>
<g>
</g>
<g>
</g>
<g>
</g>
<g>
</g>
</svg>
